<?xml version="1.0" encoding="iso-8859-1"?>
<!-- Generator: Adobe Illustrator 19.0.0, SVG Export Plug-In . SVG Version: 6.00 Build 0)  -->
<svg version="1.1" id="Layer_1" xmlns="http://www.w3.org/2000/svg" xmlns:xlink="http://www.w3.org/1999/xlink" x="0px" y="0px"
	 viewBox="0 0 511.98 511.98" style="enable-background:new 0 0 511.98 511.98;" xml:space="preserve">
<path style="fill:#EC5564;" d="M383.984,0h-63.996c0,0-0.859,138.659-63.999,138.659C192.851,138.659,191.991,0,191.991,0h-63.998
	c0,0,22.078,124.722-53.326,191.993V511.98H255.99h181.323V191.992C361.908,124.721,383.984,0,383.984,0z"/>
<rect x="74.67" y="479.98" style="fill:#D94452;" width="362.64" height="31.998"/>
<polygon style="fill:#FECD57;" points="342.908,284.365 282.849,275.646 255.99,221.218 229.131,275.646 169.071,284.365 
	212.538,326.737 202.273,386.548 255.99,358.299 309.707,386.548 299.457,326.737 "/>
<g style="opacity:0.2;">
	<path style="fill:#FFFFFF;" d="M383.984,0h-21.326c0,0-22.094,124.722,53.326,191.993V511.98h21.328V191.992
		C361.908,124.721,383.984,0,383.984,0z"/>
</g>
<g>
</g>
<g>
</g>
<g>
</g>
<g>
</g>
<g>
</g>
<g>
</g>
<g>
</g>
<g>
</g>
<g>
</g>
<g>
</g>
<g>
</g>
<g>
</g>
<g>
</g>
<g>
</g>
<g>
</g>
</svg>
