<?xml version="1.0" encoding="iso-8859-1"?>
<!-- Generator: Adobe Illustrator 19.0.0, SVG Export Plug-In . SVG Version: 6.00 Build 0)  -->
<svg version="1.1" id="Layer_1" xmlns="http://www.w3.org/2000/svg" xmlns:xlink="http://www.w3.org/1999/xlink" x="0px" y="0px"
	 viewBox="0 0 425.766 425.766" style="enable-background:new 0 0 425.766 425.766;" xml:space="preserve">
<g>
	<path style="fill:#F75959;" d="M425.766,354.048l-195.098,24.955l-17.785-138.964l-17.786,138.964L0,354.048L32.908,96.892
		l6.409-50.129c115.254,14.558,231.878,14.558,347.12,0l6.42,50.129L425.766,354.048"/>
	<path style="fill:#FFDE55;" d="M392.853,96.893c-27.34,3.26-54.74,5.77-82.19,7.54c-92.56,5.96-185.54,3.45-277.75-7.54l6.4-50.13
		c89.13,11.26,179.08,13.81,268.57,7.65c26.23-1.8,52.43-4.35,78.55-7.65L392.853,96.893"/>
	<polyline style="fill:#E9E9E9;" points="425.766,354.048 296.706,370.556 296.706,370.556 425.766,354.048 	"/>
	<polyline style="fill:#E35B5B;" points="392.858,96.892 296.706,370.556 425.766,354.048 392.858,96.892 	"/>
	<polyline style="fill:#E35B5B;" points="212.883,240.039 139.432,371.883 195.098,379.003 212.883,240.039 	"/>
	<polyline style="fill:#E35B5B;" points="386.437,46.763 386.437,46.763 392.853,96.893 392.853,96.893 386.433,46.763 	"/>
	<path style="fill:#E9CD57;" d="M386.433,46.763c-26.12,3.3-52.32,5.85-78.55,7.65l2.78,50.02c27.45-1.77,54.85-4.28,82.19-7.54
		L386.433,46.763"/>
	<path style="fill:#FFFFFF;" d="M106.955,209.266L106.955,209.266c-0.89-2.563,0.433-5.366,2.975-6.316
		c40.453-15.123,65.583-39.337,74.727-72.027c5.131-18.346,3.609-34.403,2.381-41.857c-0.418-2.537,1.141-4.974,3.622-5.647
		l0.01-0.003c2.846-0.771,5.751,1.071,6.236,3.98c1.411,8.475,3.029,26.03-2.618,46.22c-12.337,44.106-49.787,67.024-80.874,78.702
		C110.791,213.303,107.874,211.913,106.955,209.266z"/>
	<path style="fill:#FFFFFF;" d="M318.811,209.266c-0.919,2.647-3.836,4.037-6.459,3.052c-31.087-11.677-68.536-34.596-80.874-78.702
		c-5.648-20.19-4.03-37.745-2.618-46.22c0.484-2.909,3.39-4.751,6.236-3.98l4.524,1.227l-4.826-1.309l0.315,0.085
		c2.481,0.668,4.046,3.099,3.633,5.635c-1.23,7.538-2.765,23.863,2.491,42.308c9.253,32.469,34.341,56.536,74.603,71.588
		C318.377,203.899,319.701,206.703,318.811,209.266z"/>
</g>
<g>
</g>
<g>
</g>
<g>
</g>
<g>
</g>
<g>
</g>
<g>
</g>
<g>
</g>
<g>
</g>
<g>
</g>
<g>
</g>
<g>
</g>
<g>
</g>
<g>
</g>
<g>
</g>
<g>
</g>
</svg>
