<?xml version="1.0" encoding="iso-8859-1"?>
<!-- Generator: Adobe Illustrator 19.0.0, SVG Export Plug-In . SVG Version: 6.00 Build 0)  -->
<svg version="1.1" id="Layer_1" xmlns="http://www.w3.org/2000/svg" xmlns:xlink="http://www.w3.org/1999/xlink" x="0px" y="0px"
	 viewBox="0 0 499.344 499.344" style="enable-background:new 0 0 499.344 499.344;" xml:space="preserve">
<polygon style="fill:#91A9BC;" points="89.672,419.344 25.672,419.344 25.672,208.288 89.672,211.344 "/>
<polygon style="fill:#7A94A5;" points="89.672,419.344 25.672,419.344 63.904,390.112 89.672,207.912 "/>
<polygon style="fill:#91A9BC;" points="473.672,419.344 409.672,419.344 409.672,211.344 473.672,207.912 "/>
<polygon style="fill:#7A94A5;" points="473.672,419.344 409.664,419.344 447.912,390.112 473.672,207.912 "/>
<polygon style="fill:#91A9BC;" points="473.672,207.912 406.176,48.008 405.152,45.496 405.152,45.496 405.152,45.496 
	405.152,45.496 311.64,11.344 187.984,11.344 94.504,45.496 94.504,45.496 94.504,45.496 94.504,45.496 94.504,45.496 
	25.672,208.288 66.656,257.416 125.096,172.008 108.224,499.344 391.44,499.344 374.56,172.024 424.544,248.16 "/>
<g>
	<polyline style="fill:#7A94A5;" points="110.352,64.88 25.672,208.288 64.944,257.44 121.672,173.688 121.672,499.344 
		377.672,499.344 377.672,173.688 426.104,257.44 473.672,207.912 389.68,64.88 	"/>
</g>
<g>
	<path style="fill:#5F7784;" d="M294.784,3.344h-89.92l-24.2,12.344c1.144,2.08,74.176,80.936,69.168,80.936
		c-5.016,0,68.008-79.192,69.16-81.272L294.784,3.344z"/>
	<rect x="248.32" y="96.888" style="fill:#5F7784;" width="3.024" height="397.808"/>
</g>
<path style="fill:#4C6975;" d="M249.832,23.024c-20.664,0-39.304,5.44-52.704,14.192c19.52,23.728,49.776,60.68,52.704,67.424
	c2.912-6.744,33.168-43.696,52.68-67.424C289.104,28.464,270.464,23.024,249.832,23.024z"/>
<polygon style="fill:#678393;" points="208.24,64.528 249.032,106.016 236.88,51.536 "/>
<polygon style="fill:#BCCED8;" points="203,76.992 171.16,19.816 199.2,0 236.88,51.536 "/>
<polygon style="fill:#AEC4CE;" points="203,76.992 199.096,19.816 199.2,0 236.88,51.536 "/>
<polygon style="fill:#678393;" points="291.392,64.528 250.616,106.016 262.744,51.536 "/>
<polygon style="fill:#AEC4CE;" points="296.632,76.992 328.488,19.816 300.464,0 262.744,51.536 "/>
<polygon style="fill:#BCCED8;" points="296.632,76.992 300.552,19.816 300.464,0 262.744,51.536 "/>
<circle style="fill:#FFFFFF;" cx="233.344" cy="126.312" r="5.272"/>
<path style="fill:#C7E9EA;" d="M229.624,122.592c2.048-2.072,5.376-2.088,7.448,0c2.064,2.056,2.064,5.384,0,7.44"/>
<circle style="fill:#FFFFFF;" cx="233.344" cy="162.536" r="5.272"/>
<path style="fill:#C7E9EA;" d="M229.624,158.816c2.048-2.064,5.376-2.08,7.448,0c2.064,2.064,2.064,5.384,0,7.448"/>
<circle style="fill:#FFFFFF;" cx="233.344" cy="198.768" r="5.272"/>
<path style="fill:#C7E9EA;" d="M229.624,195.048c2.048-2.072,5.376-2.088,7.448,0c2.064,2.056,2.064,5.384,0,7.448"/>
<circle style="fill:#FFFFFF;" cx="233.344" cy="235" r="5.272"/>
<path style="fill:#C7E9EA;" d="M229.624,231.28c2.048-2.064,5.376-2.08,7.448,0c2.064,2.056,2.064,5.384,0,7.44"/>
<circle style="fill:#FFFFFF;" cx="233.344" cy="271.232" r="5.272"/>
<path style="fill:#C7E9EA;" d="M229.624,267.504c2.048-2.056,5.376-2.072,7.448,0c2.064,2.056,2.064,5.392,0,7.456"/>
<circle style="fill:#FFFFFF;" cx="233.344" cy="307.424" r="5.272"/>
<path style="fill:#C7E9EA;" d="M229.624,303.728c2.048-2.064,5.376-2.08,7.448,0c2.064,2.064,2.064,5.4,0,7.456"/>
<circle style="fill:#FFFFFF;" cx="233.344" cy="343.696" r="5.272"/>
<path style="fill:#C7E9EA;" d="M229.624,339.968c2.048-2.064,5.376-2.08,7.448,0c2.064,2.064,2.064,5.384,0,7.448"/>
<circle style="fill:#FFFFFF;" cx="233.344" cy="379.904" r="5.272"/>
<path style="fill:#C7E9EA;" d="M229.624,376.184c2.048-2.056,5.376-2.072,7.448,0c2.064,2.064,2.064,5.4,0,7.456"/>
<circle style="fill:#FFFFFF;" cx="233.344" cy="416.152" r="5.272"/>
<path style="fill:#C7E9EA;" d="M229.624,412.432c2.048-2.072,5.376-2.088,7.448,0c2.064,2.056,2.064,5.384,0,7.448"/>
<circle style="fill:#FFFFFF;" cx="233.344" cy="452.384" r="5.272"/>
<path style="fill:#C7E9EA;" d="M229.624,448.664c2.048-2.056,5.376-2.072,7.448,0c2.064,2.056,2.064,5.384,0,7.44"/>
<g>
	<polygon style="fill:#5F7784;" points="136.344,499.344 126.92,467.496 117.496,499.344 	"/>
	<polygon style="fill:#5F7784;" points="382.136,499.344 372.728,467.496 363.296,499.344 	"/>
</g>
<path style="opacity:0.4;fill:#70B7B7;enable-background:new    ;" d="M357.504,139.344c-4.608-16-18.272-22.68-34.6-22.68
	s-30.008,6.68-34.6,22.68H357.504z"/>
<path style="fill:#AEC4CE;" d="M361.672,136.896c0,1.352-1.096,2.448-2.44,2.448h-75.12c-1.344,0-2.44-1.096-2.44-2.448v-3.112
	c0-1.344,1.096-2.44,2.44-2.44h75.12c1.344,0,2.44,1.096,2.44,2.448V136.896z"/>
<g>
</g>
<g>
</g>
<g>
</g>
<g>
</g>
<g>
</g>
<g>
</g>
<g>
</g>
<g>
</g>
<g>
</g>
<g>
</g>
<g>
</g>
<g>
</g>
<g>
</g>
<g>
</g>
<g>
</g>
</svg>
