<?xml version="1.0" encoding="iso-8859-1"?>
<!-- Generator: Adobe Illustrator 19.0.0, SVG Export Plug-In . SVG Version: 6.00 Build 0)  -->
<svg version="1.1" id="Layer_1" xmlns="http://www.w3.org/2000/svg" xmlns:xlink="http://www.w3.org/1999/xlink" x="0px" y="0px"
	 viewBox="0 0 512 512" style="enable-background:new 0 0 512 512;" xml:space="preserve">
<path style="fill:#B4D8F1;" d="M403.735,104.241C399.5,95.3,390.492,89.6,380.599,89.6H371.2H140.8h-9.4
	c-9.893,0-18.9,5.7-23.136,14.641L0,332.8l76.8,38.4l38.4-76.8v179.2h281.6V294.4l38.4,76.8l76.8-38.4L403.735,104.241z"/>
<path style="fill:#98C8ED;" d="M403.735,104.241C399.5,95.3,390.492,89.6,380.599,89.6H371.2H256v384h140.8V294.4l38.4,76.8
	l76.8-38.4L403.735,104.241z"/>
<rect x="236.8" y="102.4" style="fill:#7AB9E8;" width="38.4" height="371.2"/>
<polygon style="fill:#98C8ED;" points="256,102.4 307.2,153.6 371.2,89.6 320,38.4 192,38.4 140.8,89.6 204.8,153.6 "/>
<g>
	<polygon style="fill:#7AB9E8;" points="320,38.4 192,38.4 256,102.4 307.2,153.6 371.2,89.6 	"/>
	<rect x="320" y="211.2" style="fill:#7AB9E8;" width="51.2" height="38.4"/>
	
		<rect x="268.349" y="59.796" transform="matrix(-0.7071 0.7071 -0.7071 -0.7071 603.236 -57.868)" style="fill:#7AB9E8;" width="90.508" height="72.409"/>
</g>
<polygon style="fill:#579ADF;" points="256,38.4 256,102.4 320,38.4 "/>
<g>
</g>
<g>
</g>
<g>
</g>
<g>
</g>
<g>
</g>
<g>
</g>
<g>
</g>
<g>
</g>
<g>
</g>
<g>
</g>
<g>
</g>
<g>
</g>
<g>
</g>
<g>
</g>
<g>
</g>
</svg>
